<?xml version="1.0" encoding="UTF-8" standalone="no"?>
<!DOCTYPE svg PUBLIC "-//W3C//DTD SVG 1.1//EN" "http://www.w3.org/Graphics/SVG/1.1/DTD/svg11.dtd">
<svg width="100%" height="100%" viewBox="0 0 2401 408" version="1.1" xmlns="http://www.w3.org/2000/svg" xmlns:xlink="http://www.w3.org/1999/xlink" xml:space="preserve" xmlns:serif="http://www.serif.com/" style="fill-rule:evenodd;clip-rule:evenodd;stroke-linejoin:round;stroke-miterlimit:2;">
    <g transform="matrix(1,0,0,1,-155.695,-1162.13)">
        <rect x="155.695" y="1162.13" width="2400.96" height="407.995" style="fill:none;"/>
        <clipPath id="_clip1">
            <rect x="155.695" y="1162.13" width="2400.96" height="407.995"/>
        </clipPath>
        <g clip-path="url(#_clip1)">
            <g transform="matrix(0.0375279,0,0,0.0375341,155.657,1161.71)">
                <path d="M26803,10906L40643,10906C41311,10906 41854,10363 41854,9694C41854,9026 41311,8483 40643,8483L26803,8483C25166,8483 24234,7090 24234,5453C24234,3816 25166,2422 26803,2422L40643,2422C41311,2422 41854,1880 41854,1211C41854,543 41311,0 40643,0L26803,0C23757,0 21812,2407 21812,5453C21812,8499 23757,10906 26803,10906ZM27262,6664L39610,6664C40278,6664 40821,6121 40821,5453C40821,4784 40278,4242 39610,4242L27262,4242C26593,4242 26050,4784 26050,5453C26050,6121 26593,6664 27262,6664Z" style="fill:rgb(234,29,37);"/>
            </g>
            <g transform="matrix(0.0375279,0,0,0.0375341,155.657,1161.71)">
                <path d="M14391,0L4991,0C1945,0 0,2407 0,5453L1,9695C1,10363 544,10906 1212,10906C1881,10905 2423,10363 2423,9694L2422,5453C2422,3816 3354,2422 4991,2422L14391,2422C16027,2422 16959,3816 16959,5453L16959,9694C16958,10363 17501,10905 18170,10906C18838,10906 19381,10363 19381,9695L19382,5453C19382,2407 17437,0 14391,0Z" style="fill:rgb(234,29,37);"/>
            </g>
            <g transform="matrix(0.0375279,0,0,0.0375341,155.657,1161.71)">
                <path d="M48615,10906L59009,10906C62055,10906 64000,8499 64000,5453C64000,2407 62055,0 59009,0L48615,0C45569,0 43623,2407 43623,5453C43623,8499 45569,10906 48615,10906ZM59009,2422L48615,2422C46978,2422 46046,3816 46046,5453C46046,7090 46978,8483 48615,8483L59009,8483C60646,8483 61577,7090 61577,5453C61577,3816 60646,2422 59009,2422Z" style="fill:rgb(234,29,37);"/>
            </g>
        </g>
    </g>
</svg>
